<?xml version="1.0" encoding="UTF-8"?>
<svg width="25px" height="21px" viewBox="0 0 25 21" version="1.1" xmlns="http://www.w3.org/2000/svg" xmlns:xlink="http://www.w3.org/1999/xlink">
    <!-- Generator: Sketch 55.2 (78181) - https://sketchapp.com -->
    <title>Dashboard-ina</title>
    <desc>Created with Sketch.</desc>
    <g id="new" stroke="none" stroke-width="1" fill="none" fill-rule="evenodd">
        <g id="Dashboard-ina" transform="translate(-12.000000, -15.000000)">
            <g id="Group-4">
                <rect id="Rectangle-20" x="0" y="0" width="48" height="48"></rect>
                <g id="Group-6" transform="translate(12.000000, 15.000000)" stroke="#1A404D">
                    <path d="M22.2,18.80181 C22.1593301,18.8819701 22.1130519,18.958919 22.0615385,19.0320362 C21.7530065,19.4944219 21.2460588,19.7703794 20.7046154,19.7706787 L3.68307692,19.7706787 C3.35150731,19.765532 3.02939337,19.6550659 2.76,19.4541176 C2.59381601,19.3312339 2.4500305,19.1785614 2.33538462,19.0032579 C0.0337837513,15.1664727 -0.0109826379,10.3145564 2.21940108,6.43261275 C4.4497848,2.5506691 8.58110331,0.290013265 12.9230769,0.575565611 C16.9692126,0.828381066 20.5956732,3.25546486 22.4909294,6.97904889 C24.3861856,10.7026329 24.2759159,15.1837615 22.2,18.80181 L22.2,18.80181 Z" id="Shape"></path>
                    <path d="M12.6461538,4.41266968 C8.12931426,4.41266968 4.46769231,8.21788465 4.46769231,12.9118552" id="Shape" stroke-linecap="round"></path>
                    <path d="M12.2492308,16.8832579 C10.9675812,16.9410535 9.76955182,16.2227892 9.17614639,15.0408264 C8.58274096,13.8588636 8.70119704,12.4268015 9.48,11.3674208 C10.085398,10.723245 10.7945432,10.194066 11.5753846,9.8038009 C12.9908786,9.02100815 14.4452171,8.31655538 15.9323077,7.69339367 L16.0615385,7.69339367 C16.1760498,7.68684909 16.2874733,7.73332758 16.3658513,7.82033283 C16.4442294,7.90733807 16.4815182,8.02594087 16.4676923,8.14425339 C16.4676923,8.29773756 16.1723077,10.7342986 15.6923077,12.8351131 C15.5413248,13.8017034 15.2289319,14.7334306 14.7692308,15.5882353 C14.157438,16.3892851 13.2331628,16.8642682 12.2492308,16.8832579 Z" id="Shape"></path>
                </g>
                <circle id="Oval-2" fill="#1A404D" cx="24" cy="28.75" r="1.25"></circle>
            </g>
        </g>
    </g>
</svg>