<?xml version="1.0" encoding="UTF-8"?>
<svg width="16px" height="16px" viewBox="0 0 16 16" version="1.1" xmlns="http://www.w3.org/2000/svg" xmlns:xlink="http://www.w3.org/1999/xlink">
    <!-- Generator: Sketch 55.2 (78181) - https://sketchapp.com -->
    <title>logo</title>
    <desc>Created with Sketch.</desc>
    <g id="new" stroke="none" stroke-width="1" fill="none" fill-rule="evenodd">
        <g id="logo" transform="translate(-16.000000, -16.000000)">
            <path d="M31.6735859,21.5120174 C31.0289654,19.3714514 29.7094099,17.7655636 27.6273087,16.7985102 C25.7552667,15.9281235 23.7933126,15.7824285 21.8011234,16.2972638 C19.2083571,16.9671365 17.4278142,18.5462324 16.4937771,21.0010426 C16.0756427,22.0999704 15.9651771,23.2462279 16.0089031,24.4115563 C16.0458837,25.3992247 16.2266599,26.3567813 16.6068614,27.2755786 C17.2894941,28.9243178 18.4105767,30.2031447 20.0335158,31.034386 C22.010389,32.0468388 24.0972516,32.2552282 26.2453782,31.6966921 C28.5822168,31.0898998 30.2738,29.7061448 31.2737832,27.5476661 C31.7988913,26.4144571 32.003951,25.2189397 31.999745,23.8996549 C32.0054588,23.1457779 31.9157055,22.3175478 31.6735859,21.5120174 Z" id="Shape" fill="#00B3F1"></path>
            <rect id="Rectangle" x="0" y="0" width="48" height="48"></rect>
        </g>
    </g>
</svg>