<?xml version="1.0" encoding="UTF-8"?>
<svg width="25px" height="33px" viewBox="0 0 25 33" version="1.1" xmlns="http://www.w3.org/2000/svg" xmlns:xlink="http://www.w3.org/1999/xlink">
    <!-- Generator: Sketch 55.2 (78181) - https://sketchapp.com -->
    <title>notification-new</title>
    <desc>Created with Sketch.</desc>
    <g id="new" stroke="none" stroke-width="1" fill="none" fill-rule="evenodd">
        <g id="notification-new" transform="translate(-12.000000, -5.000000)">
            <g id="Group" stroke-width="1" fill-rule="evenodd" transform="translate(12.500000, 13.000000)" stroke="#1A404D">
                <path d="M20.4546669,14.6423319 L20.4399267,14.6142772 L19.797375,13.2889764 C19.4646901,12.482328 19.213262,11.6466062 19.0023749,10.7096375 C18.9208854,10.3475809 18.8478604,9.98295665 18.7668827,9.54464341 C18.7354843,9.3746915 18.6109332,8.68090626 18.5791605,8.51042502 C18.5256448,8.22327767 18.4803198,7.99952684 18.4381336,7.8156582 C17.2778053,3.41909251 15.4261438,1.29724187 12.8226182,0.599217636 C12.4595023,0.466927455 10.5389424,0.466927455 10.1338045,0.612461027 C7.57230088,1.29724187 5.72063946,3.41909251 4.56405707,7.80051046 C4.51812483,7.99952719 4.47279973,8.22327842 4.41928392,8.51042641 C4.38751132,8.68090759 4.26296028,9.37469258 4.23156193,9.54464444 C4.15058425,9.98295744 4.07755936,10.3475814 3.99606997,10.7096378 C3.78518308,11.6466056 3.53375549,12.4823263 3.18861239,13.3167509 L2.54377779,14.6423319 C2.27716868,15.1129114 1.97809748,15.563577 1.62474365,16.0172427 C1.59259715,16.0539969 1.5312028,16.1285008 1.45044172,16.2340655 C1.31411696,16.4122588 1.17757157,16.6086321 1.05071636,16.8160023 C0.798073115,17.2289981 0.618029455,17.6303073 0.540935325,17.9881238 C0.491695874,18.2166585 0.486912879,18.4175611 0.532293612,18.6161862 C0.758330367,19.9368974 1.75052318,20.1026004 6.03816728,19.8236758 C7.6602765,19.7181526 8.63276344,19.6781981 9.73818083,19.6951892 C9.91258298,19.6978699 10.4497948,19.6979405 11.4984455,19.6962979 C11.6226014,19.6961012 11.6226014,19.6961012 11.7460879,19.6959001 C12.8152454,19.6941543 13.1140738,19.6938923 13.2719193,19.6951459 C14.2909286,19.7032389 15.202205,19.7538154 16.647632,19.8649117 C21.1294197,20.2093846 22.1242346,20.0461234 22.473625,18.5468534 C22.5108367,18.3871746 22.5086947,18.2011149 22.4670473,17.9911359 C22.3953171,17.6294841 22.2122099,17.2217519 21.9507404,16.8023818 C21.733733,16.4543244 21.5162537,16.1763184 21.355139,15.9947265 C21.0203472,15.563577 20.721276,15.1129114 20.4546669,14.6423319 Z" id="Combined-Shape"></path>
                <path d="M14.9457682,20.1465893 C14.9814052,20.3469183 15,20.5531429 15,20.7637105 C15,22.6967071 13.4329966,24.2637105 11.5,24.2637105 C9.56700338,24.2637105 8,22.6967071 8,20.7637105 C8,20.5098649 8.02702384,20.262331 8.07835155,20.0238289" id="Combined-Shape" stroke-linecap="round"></path>
            </g>
            <circle id="Oval-Copy" fill="#FA8B93" fill-rule="evenodd" cx="31.5" cy="20.5" r="4"></circle>
        </g>
    </g>
</svg>