<?xml version="1.0" encoding="UTF-8"?>
<svg width="23px" height="19px" viewBox="0 0 23 19" version="1.1" xmlns="http://www.w3.org/2000/svg" xmlns:xlink="http://www.w3.org/1999/xlink">
    <!-- Generator: Sketch 55.2 (78181) - https://sketchapp.com -->
    <title>reporting-ina</title>
    <desc>Created with Sketch.</desc>
    <g id="new" stroke="none" stroke-width="1" fill="none" fill-rule="evenodd">
        <g id="reporting-ina" transform="translate(-12.000000, -14.000000)">
            <g id="Group" transform="translate(13.000000, 14.000000)">
                <path d="M18.4273872,1.52894158 C18.4092764,1.64184199 18.3998841,1.75746897 18.3998841,1.87518189 C18.3998841,2.1829502 18.4640893,2.47645911 18.5804582,2.74425851 C17.8962223,3.53529273 17.5288852,4.67861814 17.5288852,5.93628217 C17.5288852,7.33553136 17.325601,8.5878169 16.8878711,9.51868324 C16.8293669,9.44785321 16.7665356,9.37979933 16.6995329,9.31489675 C16.5109325,9.1322077 16.2954664,8.98047784 16.0618678,8.86316775 C16.3641521,8.10785465 16.5239749,7.09013376 16.5239749,5.93628217 C16.5239749,4.13417496 17.1847405,2.48230246 18.4273872,1.52894158 Z M10.2649793,5.71214883 C10.6327868,6.17558735 10.9670149,6.78716486 11.3293902,7.5718552 C11.3486633,7.61359455 11.3486633,7.61359455 11.3678858,7.65521046 C11.8267312,8.64830735 12.2105791,9.2966448 12.687267,9.69514837 C12.4948527,9.97546283 12.3609656,10.295418 12.3020811,10.6393407 C11.5708659,10.151208 11.0374725,9.31570176 10.4478531,8.03956592 C10.4285321,7.99773653 10.4285321,7.99773653 10.4092841,7.95605153 C10.1817868,7.46342714 9.97608496,7.05935406 9.7710253,6.73077691 C10.0118073,6.43729423 10.1840782,6.09050623 10.2649793,5.71214883 Z M5.14868717,5.08991552 C5.14633969,5.13286707 5.14515136,5.17611029 5.14515136,5.21961742 C5.14515136,5.58642468 5.22961929,5.93447238 5.38106833,6.24713258 C4.73185156,6.99662721 4.37238844,8.35124441 4.02148067,10.6033271 C3.864338,11.6118494 3.84304748,11.7452507 3.76789342,12.1684298 C3.30338994,14.783966 2.64204959,16.4676239 1.30315494,17.7407573 L0.592576059,17.0650793 C1.74618677,15.9681294 2.34443207,14.4451006 2.77701253,12.0093172 C2.85052776,11.5953661 2.87155252,11.46363 3.0274219,10.4632795 C3.4811317,7.55142607 4.00333296,5.88521409 5.14868717,5.08991552 Z" id="Combined-Shape" fill="#1A404D" fill-rule="nonzero"></path>
                <path d="M15.6442698,10.5723717 C15.6580319,11.2262539 15.1162066,11.7690672 14.4287666,11.7900912 C13.7413266,11.8111153 13.1639387,11.3025311 13.1334839,10.6491594 C13.1183812,10.3251481 13.2424942,10.0092272 13.4773042,9.77398905 C13.7121142,9.53875091 14.0374307,9.40442284 14.3785024,9.40187077 C15.0662766,9.39672449 15.6305077,9.91848945 15.6442698,10.5723717 Z" id="Shape" fill="#1A404D"></path>
                <polyline id="Path-13" stroke="#1A404D" stroke-linecap="round" points="0.458333333 0.458333333 0.458333333 17.875 21.5416667 17.875"></polyline>
                <path d="M8.82650372,5.06686356 C8.82650372,5.72653526 8.26411164,6.26130482 7.57036586,6.26130482 C6.87662008,6.26130482 6.314228,5.72653526 6.314228,5.06686356 C6.314228,4.40719187 6.87662008,3.8724223 7.57036586,3.8724223 C8.26411164,3.8724223 8.82650372,4.40719187 8.82650372,5.06686356 Z" id="Shape" fill="#1A404D"></path>
                <path d="M21.5802563,1.06142821 C21.7746797,1.5077538 21.6672115,2.02149677 21.3079638,2.36309958 C20.9487161,2.7047024 20.4084367,2.80689223 19.9390571,2.62201812 C19.4696774,2.43714401 19.1636337,2.00161374 19.1636337,1.51851441 C19.1636337,0.85885236 19.7260175,0.324090608 20.4197532,0.324090608 C20.9278061,0.324090608 21.3858328,0.615102625 21.5802563,1.06142821 Z" id="Combined-Shape" fill="#1A404D"></path>
            </g>
        </g>
    </g>
</svg>